<svg width="46" height="46" viewBox="0 0 46 46" fill="none" xmlns="http://www.w3.org/2000/svg">
<rect x="-0.0100098" width="46" height="46" rx="23" fill="#EFD028" fill-opacity="0.3"/>
<path d="M34.3939 22.1704C34.3947 21.2484 34.1677 20.3405 33.7332 19.5273C33.2988 18.7142 32.6701 18.0209 31.9033 17.5091C31.1364 16.9973 30.255 16.6828 29.3373 16.5936C28.4196 16.5044 27.4942 16.6432 26.643 16.9977C25.7919 17.3522 25.0416 17.9114 24.4586 18.6257C23.8756 19.3399 23.478 20.1871 23.3012 21.092C23.1244 21.9969 23.1738 22.9314 23.4451 23.8126C23.7163 24.6938 24.201 25.4943 24.8561 26.1431V32.1229C24.856 32.2289 24.8831 32.3332 24.9347 32.4258C24.9863 32.5184 25.0607 32.5963 25.1508 32.6521C25.241 32.7079 25.3439 32.7397 25.4498 32.7445C25.5557 32.7493 25.6611 32.727 25.7559 32.6796L28.7956 31.1598L31.8353 32.6796C31.9215 32.7226 32.0167 32.745 32.1131 32.745C32.2285 32.7451 32.3417 32.7128 32.4397 32.6516C32.5299 32.596 32.6044 32.5182 32.6561 32.4257C32.7078 32.3331 32.735 32.2289 32.7351 32.1229V26.1431C33.2609 25.6238 33.6783 25.0051 33.963 24.3232C34.2477 23.6412 34.3942 22.9095 34.3939 22.1704ZM24.4414 22.1704C24.4414 21.3092 24.6967 20.4674 25.1752 19.7513C25.6536 19.0353 26.3337 18.4772 27.1293 18.1476C27.9249 17.8181 28.8004 17.7319 29.6451 17.8999C30.4897 18.0679 31.2655 18.4826 31.8745 19.0915C32.4834 19.7005 32.8981 20.4763 33.0661 21.321C33.2342 22.1656 33.1479 23.0411 32.8184 23.8367C32.4888 24.6323 31.9307 25.3124 31.2147 25.7908C30.4986 26.2693 29.6568 26.5246 28.7956 26.5246C27.6408 26.5246 26.5333 26.0659 25.7167 25.2493C24.9001 24.4327 24.4414 23.3252 24.4414 22.1704ZM31.4911 31.1163L29.0734 29.9075C28.9871 29.8644 28.892 29.842 28.7956 29.842C28.6992 29.842 28.604 29.8644 28.5177 29.9075L26.1001 31.1163V27.0731C26.9257 27.528 27.853 27.7666 28.7956 27.7666C29.7382 27.7666 30.6655 27.528 31.4911 27.0731V31.1163ZM22.7826 28.8054C22.7826 28.9704 22.7171 29.1286 22.6004 29.2453C22.4838 29.3619 22.3256 29.4275 22.1606 29.4275H13.0375C12.6525 29.4275 12.2834 29.2745 12.0112 29.0023C11.739 28.7302 11.5861 28.361 11.5861 27.976V14.706C11.5861 14.3211 11.739 13.9519 12.0112 13.6797C12.2834 13.4076 12.6525 13.2546 13.0375 13.2546H31.2837C31.6687 13.2546 32.0378 13.4076 32.31 13.6797C32.5822 13.9519 32.7351 14.3211 32.7351 14.706C32.7351 14.871 32.6696 15.0292 32.5529 15.1459C32.4363 15.2625 32.2781 15.3281 32.1131 15.3281C31.9481 15.3281 31.7899 15.2625 31.6732 15.1459C31.5566 15.0292 31.4911 14.871 31.4911 14.706C31.4911 14.6511 31.4692 14.5983 31.4303 14.5594C31.3914 14.5205 31.3387 14.4987 31.2837 14.4987H13.0375C12.9825 14.4987 12.9297 14.5205 12.8909 14.5594C12.852 14.5983 12.8301 14.6511 12.8301 14.706V27.976C12.8301 28.031 12.852 28.0838 12.8909 28.1227C12.9297 28.1615 12.9825 28.1834 13.0375 28.1834H22.1606C22.3256 28.1834 22.4838 28.2489 22.6004 28.3656C22.7171 28.4822 22.7826 28.6404 22.7826 28.8054ZM21.1239 22.9998C21.1239 23.1648 21.0583 23.323 20.9417 23.4396C20.825 23.5563 20.6668 23.6218 20.5018 23.6218H16.355C16.19 23.6218 16.0318 23.5563 15.9151 23.4396C15.7985 23.323 15.7329 23.1648 15.7329 22.9998C15.7329 22.8348 15.7985 22.6766 15.9151 22.56C16.0318 22.4433 16.19 22.3778 16.355 22.3778H20.5018C20.6668 22.3778 20.825 22.4433 20.9417 22.56C21.0583 22.6766 21.1239 22.8348 21.1239 22.9998ZM21.1239 19.6823C21.1239 19.8473 21.0583 20.0055 20.9417 20.1221C20.825 20.2388 20.6668 20.3043 20.5018 20.3043H16.355C16.19 20.3043 16.0318 20.2388 15.9151 20.1221C15.7985 20.0055 15.7329 19.8473 15.7329 19.6823C15.7329 19.5173 15.7985 19.3591 15.9151 19.2425C16.0318 19.1258 16.19 19.0603 16.355 19.0603H20.5018C20.6668 19.0603 20.825 19.1258 20.9417 19.2425C21.0583 19.3591 21.1239 19.5173 21.1239 19.6823Z" fill="#CBA900"/>
</svg>
