<svg width="47" height="46" viewBox="0 0 47 46" fill="none" xmlns="http://www.w3.org/2000/svg">
<rect x="0.330078" width="46" height="46" rx="23" fill="#D11A2A" fill-opacity="0.17"/>
<path d="M34.7341 22.1704C34.7349 21.2484 34.5079 20.3405 34.0735 19.5273C33.639 18.7142 33.0104 18.0209 32.2435 17.5091C31.4766 16.9973 30.5952 16.6828 29.6775 16.5936C28.7598 16.5044 27.8344 16.6432 26.9833 16.9977C26.1321 17.3522 25.3818 17.9114 24.7988 18.6257C24.2158 19.3399 23.8182 20.1871 23.6414 21.092C23.4646 21.9969 23.514 22.9314 23.7853 23.8126C24.0565 24.6938 24.5412 25.4943 25.1963 26.1431V32.1229C25.1962 32.2289 25.2233 32.3332 25.2749 32.4258C25.3265 32.5184 25.4009 32.5963 25.491 32.6521C25.5812 32.7079 25.6841 32.7397 25.79 32.7445C25.8959 32.7493 26.0013 32.727 26.0961 32.6796L29.1358 31.1598L32.1755 32.6796C32.2618 32.7226 32.3569 32.745 32.4533 32.745C32.5688 32.7451 32.6819 32.7128 32.7799 32.6516C32.8701 32.596 32.9446 32.5182 32.9963 32.4257C33.048 32.3331 33.0752 32.2289 33.0753 32.1229V26.1431C33.6011 25.6238 34.0185 25.0051 34.3032 24.3232C34.588 23.6412 34.7344 22.9095 34.7341 22.1704ZM24.7816 22.1704C24.7816 21.3092 25.037 20.4674 25.5154 19.7513C25.9938 19.0353 26.6739 18.4772 27.4695 18.1476C28.2651 17.8181 29.1406 17.7319 29.9853 17.8999C30.8299 18.0679 31.6057 18.4826 32.2147 19.0915C32.8236 19.7005 33.2383 20.4763 33.4064 21.321C33.5744 22.1656 33.4881 23.0411 33.1586 23.8367C32.829 24.6323 32.2709 25.3124 31.5549 25.7908C30.8388 26.2693 29.997 26.5246 29.1358 26.5246C27.981 26.5246 26.8735 26.0659 26.0569 25.2493C25.2403 24.4327 24.7816 23.3252 24.7816 22.1704ZM31.8313 31.1163L29.4136 29.9075C29.3274 29.8644 29.2322 29.842 29.1358 29.842C29.0394 29.842 28.9442 29.8644 28.858 29.9075L26.4403 31.1163V27.0731C27.2659 27.528 28.1932 27.7666 29.1358 27.7666C30.0784 27.7666 31.0057 27.528 31.8313 27.0731V31.1163ZM23.1228 28.8054C23.1228 28.9704 23.0573 29.1286 22.9406 29.2453C22.824 29.3619 22.6658 29.4275 22.5008 29.4275H13.3777C12.9927 29.4275 12.6236 29.2745 12.3514 29.0023C12.0792 28.7302 11.9263 28.361 11.9263 27.976V14.706C11.9263 14.3211 12.0792 13.9519 12.3514 13.6797C12.6236 13.4076 12.9927 13.2546 13.3777 13.2546H31.6239C32.0089 13.2546 32.378 13.4076 32.6502 13.6797C32.9224 13.9519 33.0753 14.3211 33.0753 14.706C33.0753 14.871 33.0098 15.0292 32.8931 15.1459C32.7765 15.2625 32.6183 15.3281 32.4533 15.3281C32.2883 15.3281 32.1301 15.2625 32.0135 15.1459C31.8968 15.0292 31.8313 14.871 31.8313 14.706C31.8313 14.6511 31.8094 14.5983 31.7705 14.5594C31.7317 14.5205 31.6789 14.4987 31.6239 14.4987H13.3777C13.3227 14.4987 13.2699 14.5205 13.2311 14.5594C13.1922 14.5983 13.1703 14.6511 13.1703 14.706V27.976C13.1703 28.031 13.1922 28.0838 13.2311 28.1227C13.2699 28.1615 13.3227 28.1834 13.3777 28.1834H22.5008C22.6658 28.1834 22.824 28.2489 22.9406 28.3656C23.0573 28.4822 23.1228 28.6404 23.1228 28.8054ZM21.4641 22.9998C21.4641 23.1648 21.3985 23.323 21.2819 23.4396C21.1652 23.5563 21.007 23.6218 20.8421 23.6218H16.6952C16.5302 23.6218 16.372 23.5563 16.2553 23.4396C16.1387 23.323 16.0731 23.1648 16.0731 22.9998C16.0731 22.8348 16.1387 22.6766 16.2553 22.56C16.372 22.4433 16.5302 22.3778 16.6952 22.3778H20.8421C21.007 22.3778 21.1652 22.4433 21.2819 22.56C21.3985 22.6766 21.4641 22.8348 21.4641 22.9998ZM21.4641 19.6823C21.4641 19.8473 21.3985 20.0055 21.2819 20.1221C21.1652 20.2388 21.007 20.3043 20.8421 20.3043H16.6952C16.5302 20.3043 16.372 20.2388 16.2553 20.1221C16.1387 20.0055 16.0731 19.8473 16.0731 19.6823C16.0731 19.5173 16.1387 19.3591 16.2553 19.2425C16.372 19.1258 16.5302 19.0603 16.6952 19.0603H20.8421C21.007 19.0603 21.1652 19.1258 21.2819 19.2425C21.3985 19.3591 21.4641 19.5173 21.4641 19.6823Z" fill="#D11A2A"/>
</svg>
