<svg width="322" height="86" viewBox="0 0 322 86" fill="none" xmlns="http://www.w3.org/2000/svg">
<path opacity="0.1" fill-rule="evenodd" clip-rule="evenodd" d="M1.52515 57.9463C1.52515 57.9463 14.0975 55.9281 28.3915 60.7765C55.5779 69.998 57.1288 53.1113 67.2098 44.9689C76.4328 37.5195 84.0711 42.0647 94.3403 51.1747C101.914 57.8937 112.952 69.1723 124.383 67.3567C134.833 65.6969 142.24 52.4686 156.724 49.1045C168.203 46.4382 177.532 53.7632 190.75 51.1747C208.682 47.6632 216.692 26.9904 229.508 26.9904C245.326 26.9904 256.462 9.5061 270.852 9.5061C285.156 9.5061 287.098 19.7873 302.746 26.9904C314.709 32.4973 320.465 26.9904 320.465 26.9904V86.0001H1.52515V57.9463Z" fill="url(#paint0_linear_21_14611)"/>
<path d="M1.52515 48.7807C1.52515 48.7807 14.0975 46.7917 28.3915 51.5699C55.5779 60.6579 57.1288 44.0157 67.2098 35.9912C76.4328 28.6496 84.0711 33.1289 94.3403 42.1071C101.914 48.7289 112.952 59.8442 124.383 58.0548C134.833 56.4191 142.24 43.3823 156.724 40.0668C168.203 37.4391 177.532 44.6581 190.75 42.1071C208.682 38.6464 216.692 18.2729 229.508 18.2729C245.326 18.2729 256.462 1 270.852 1C285.156 1 285.917 11.174 301.565 18.2729C313.527 23.7 320.465 18.2729 320.465 18.2729" stroke="#2BAA20" stroke-width="2" stroke-linecap="round" stroke-linejoin="round"/>
<defs>
<linearGradient id="paint0_linear_21_14611" x1="58.8491" y1="56.3741" x2="61.854" y2="111.172" gradientUnits="userSpaceOnUse">
<stop stop-color="#2BAA20"/>
<stop offset="1" stop-color="white" stop-opacity="0.01"/>
</linearGradient>
</defs>
</svg>
