<svg width="322" height="86" viewBox="0 0 322 86" fill="none" xmlns="http://www.w3.org/2000/svg">
<path opacity="0.1" fill-rule="evenodd" clip-rule="evenodd" d="M1.19531 57.9463C1.19531 57.9463 13.7677 55.9281 28.0617 60.7765C55.248 69.998 56.7989 53.1113 66.8799 44.9689C76.1029 37.5195 83.7413 42.0647 94.0104 51.1747C101.584 57.8937 112.622 69.1723 124.053 67.3567C134.503 65.6969 141.91 52.4686 156.394 49.1045C167.873 46.4382 177.202 53.7632 190.42 51.1747C208.352 47.6632 216.362 26.9904 229.178 26.9904C244.996 26.9904 256.132 9.5061 270.522 9.5061C284.827 9.5061 286.768 19.7873 302.416 26.9904C314.379 32.4973 320.135 26.9904 320.135 26.9904V86.0001H1.19531V57.9463Z" fill="url(#paint0_linear_21_14995)"/>
<path d="M1.19531 48.7807C1.19531 48.7807 13.7677 46.7917 28.0617 51.5699C55.248 60.6579 56.7989 44.0157 66.8799 35.9912C76.1029 28.6496 83.7413 33.1289 94.0104 42.1071C101.584 48.7289 112.622 59.8442 124.053 58.0548C134.503 56.4191 141.91 43.3823 156.394 40.0668C167.873 37.4391 177.202 44.6581 190.42 42.1071C208.352 38.6464 216.362 18.2729 229.178 18.2729C244.996 18.2729 256.132 1 270.522 1C284.827 1 285.587 11.174 301.235 18.2729C313.198 23.7 320.135 18.2729 320.135 18.2729" stroke="#CBA900" stroke-width="2" stroke-linecap="round" stroke-linejoin="round"/>
<defs>
<linearGradient id="paint0_linear_21_14995" x1="58.5193" y1="56.3741" x2="61.5242" y2="111.172" gradientUnits="userSpaceOnUse">
<stop stop-color="#D2B004"/>
<stop offset="1" stop-color="white" stop-opacity="0.01"/>
</linearGradient>
</defs>
</svg>
