<svg width="322" height="86" viewBox="0 0 322 86" fill="none" xmlns="http://www.w3.org/2000/svg">
<path opacity="0.1" fill-rule="evenodd" clip-rule="evenodd" d="M320.135 57.9463C320.135 57.9463 307.562 55.9281 293.268 60.7765C266.082 69.998 264.531 53.1113 254.45 44.9689C245.227 37.5195 237.589 42.0647 227.32 51.1747C219.746 57.8937 208.708 69.1723 197.277 67.3567C186.827 65.6969 179.42 52.4686 164.936 49.1045C153.457 46.4382 144.128 53.7632 130.91 51.1747C112.978 47.6632 104.968 26.9904 92.152 26.9904C76.3343 26.9904 65.1978 9.5061 50.808 9.5061C36.5035 9.5061 34.5617 19.7873 18.914 26.9904C6.9512 32.4973 1.19516 26.9904 1.19516 26.9904V86.0001H320.135V57.9463Z" fill="url(#paint0_linear_21_15016)"/>
<path d="M320.135 48.7807C320.135 48.7807 307.562 46.7917 293.268 51.5699C266.082 60.6579 264.531 44.0157 254.45 35.9912C245.227 28.6496 237.589 33.1289 227.32 42.1071C219.746 48.7289 208.708 59.8442 197.277 58.0548C186.827 56.4191 179.42 43.3823 164.936 40.0668C153.457 37.4391 144.128 44.6581 130.91 42.1071C112.978 38.6464 104.968 18.2729 92.152 18.2729C76.3343 18.2729 65.1978 1 50.808 1C36.5035 1 35.743 11.174 20.0953 18.2729C8.13247 23.7 1.19515 18.2729 1.19515 18.2729" stroke="#D11A2A" stroke-width="2" stroke-linecap="round" stroke-linejoin="round"/>
<defs>
<linearGradient id="paint0_linear_21_15016" x1="262.811" y1="56.3741" x2="259.806" y2="111.172" gradientUnits="userSpaceOnUse">
<stop stop-color="#D11A2A"/>
<stop offset="1" stop-color="white" stop-opacity="0.01"/>
</linearGradient>
</defs>
</svg>
