<svg width="319" height="86" viewBox="0 0 319 86" fill="none" xmlns="http://www.w3.org/2000/svg">
<path opacity="0.2" fill-rule="evenodd" clip-rule="evenodd" d="M1.87628 57.9463C1.87628 57.9463 14.3161 55.9281 28.4594 60.7765C55.3592 69.9979 56.8937 53.1113 66.8685 44.9689C75.9942 37.5195 83.5521 42.0647 93.7129 51.1747C101.207 57.8937 112.129 69.1723 123.439 67.3566C133.778 65.6969 141.108 52.4686 155.439 49.1044C166.797 46.4381 176.028 53.7632 189.107 51.1747C206.849 47.6631 214.775 26.9904 227.456 26.9904C243.107 26.9904 254.126 9.5061 268.364 9.5061C282.518 9.5061 284.439 19.7873 299.922 26.9904C311.758 32.4972 317.454 26.9904 317.454 26.9904V86H1.87628V57.9463Z" fill="url(#paint0_linear_21_14599)"/>
<path d="M1.87628 48.7806C1.87628 48.7806 14.3161 46.7917 28.4594 51.5699C55.3592 60.6578 56.8937 44.0156 66.8685 35.9911C75.9942 28.6496 83.5521 33.1289 93.7129 42.1071C101.207 48.7288 112.129 59.8442 123.439 58.0548C133.778 56.419 141.108 43.3823 155.439 40.0668C166.797 37.4391 176.028 44.6581 189.107 42.1071C206.849 38.6464 214.775 18.2729 227.456 18.2729C243.107 18.2729 254.126 1 268.364 1C282.518 1 283.27 11.174 298.753 18.2729C310.59 23.7 317.454 18.2729 317.454 18.2729" stroke="#365486" stroke-opacity="0.8" stroke-width="2" stroke-linecap="round" stroke-linejoin="round"/>
<defs>
<linearGradient id="paint0_linear_21_14599" x1="58.9093" y1="57.9419" x2="62.4525" y2="99.5343" gradientUnits="userSpaceOnUse">
<stop stop-color="#7FC7D9"/>
<stop offset="1" stop-color="white" stop-opacity="0.01"/>
</linearGradient>
</defs>
</svg>
