<svg width="47" height="46" viewBox="0 0 47 46" fill="none" xmlns="http://www.w3.org/2000/svg">
<rect x="0.659912" width="46" height="46" rx="23" fill="#E3F1E5"/>
<path d="M32.5757 19.6857C32.5768 18.179 32.1961 16.6967 31.469 15.377C30.742 14.0573 29.6924 12.9434 28.4182 12.1393C27.1441 11.3352 25.6869 10.8671 24.1828 10.7788C22.6787 10.6904 21.1768 10.9847 19.8172 11.634C18.4577 12.2834 17.2848 13.2668 16.4083 14.4922C15.5317 15.7177 14.98 17.1453 14.8047 18.6417C14.6294 20.1382 14.8362 21.6546 15.4057 23.0495C15.9753 24.4444 16.889 25.6722 18.0616 26.6183V34.6145C18.0618 34.7205 18.089 34.8247 18.1407 34.9172C18.1924 35.0098 18.2669 35.0875 18.3571 35.1432C18.455 35.2043 18.5682 35.2367 18.6837 35.2365C18.7801 35.2366 18.8752 35.2142 18.9615 35.1712L23.6599 32.822L28.3594 35.1712C28.4542 35.2183 28.5594 35.2404 28.6652 35.2355C28.771 35.2306 28.8737 35.1987 28.9637 35.143C29.0537 35.0872 29.128 35.0094 29.1795 34.9169C29.2311 34.8244 29.2581 34.7203 29.2582 34.6145V26.6183C30.2939 25.7839 31.1295 24.7281 31.7036 23.5284C32.2777 22.3288 32.5757 21.0157 32.5757 19.6857ZM15.9882 19.6857C15.9882 18.1684 16.4381 16.6851 17.2811 15.4235C18.1241 14.1619 19.3223 13.1786 20.7241 12.598C22.1259 12.0173 23.6684 11.8654 25.1566 12.1614C26.6448 12.4574 28.0117 13.1881 29.0846 14.261C30.1576 15.3339 30.8882 16.7009 31.1842 18.189C31.4802 19.6772 31.3283 21.2197 30.7477 22.6216C30.167 24.0234 29.1837 25.2215 27.9221 26.0645C26.6605 26.9075 25.1772 27.3574 23.6599 27.3574C21.626 27.355 19.6761 26.5459 18.2379 25.1077C16.7997 23.6695 15.9907 21.7196 15.9882 19.6857ZM28.0141 33.6078L23.9367 31.5696C23.8504 31.5266 23.7553 31.5041 23.6589 31.5041C23.5624 31.5041 23.4673 31.5266 23.381 31.5696L19.3057 33.6078V27.4611C20.6354 28.2081 22.1348 28.6005 23.6599 28.6005C25.185 28.6005 26.6845 28.2081 28.0141 27.4611V33.6078ZM23.6599 25.284C24.7672 25.284 25.8495 24.9557 26.7702 24.3405C27.6908 23.7254 28.4083 22.851 28.8321 21.8281C29.2558 20.8051 29.3666 19.6795 29.1506 18.5935C28.9346 17.5076 28.4014 16.5101 27.6185 15.7271C26.8356 14.9442 25.8381 14.411 24.7521 14.195C23.6661 13.979 22.5405 14.0899 21.5176 14.5136C20.4946 14.9373 19.6203 15.6548 19.0051 16.5755C18.39 17.4961 18.0616 18.5785 18.0616 19.6857C18.0633 21.17 18.6536 22.593 19.7032 23.6425C20.7527 24.692 22.1757 25.2824 23.6599 25.284ZM23.6599 15.3315C24.5211 15.3315 25.363 15.5869 26.079 16.0653C26.795 16.5438 27.3531 17.2238 27.6827 18.0194C28.0123 18.8151 28.0985 19.6905 27.9305 20.5352C27.7625 21.3798 27.3478 22.1557 26.7388 22.7646C26.1299 23.3736 25.354 23.7883 24.5094 23.9563C23.6648 24.1243 22.7893 24.0381 21.9936 23.7085C21.198 23.3789 20.518 22.8208 20.0395 22.1048C19.5611 21.3887 19.3057 20.5469 19.3057 19.6857C19.3057 18.5309 19.7645 17.4234 20.581 16.6068C21.3976 15.7902 22.5051 15.3315 23.6599 15.3315Z" fill="#2BAA20"/>
</svg>
