<svg width="47" height="46" viewBox="0 0 47 46" fill="none" xmlns="http://www.w3.org/2000/svg">
<g opacity="0.9">
<rect x="0.329987" width="46" height="46" rx="23" fill="#D9EFF4"/>
<path d="M32.0629 16.7554L27.9163 12.6087C27.7997 12.492 27.6416 12.4264 27.4767 12.4263H19.1835C18.7985 12.4263 18.4294 12.5792 18.1572 12.8514C17.885 13.1235 17.7321 13.4927 17.7321 13.8776V15.7436H15.8661C15.4812 15.7436 15.1121 15.8965 14.8399 16.1687C14.5677 16.4408 14.4148 16.81 14.4148 17.1949V32.1228C14.4148 32.5077 14.5677 32.8768 14.8399 33.149C15.1121 33.4212 15.4812 33.5741 15.8661 33.5741H27.4767C27.8616 33.5741 28.2308 33.4212 28.503 33.149C28.7751 32.8768 28.928 32.5077 28.928 32.1228V30.2568H30.794C31.1789 30.2568 31.5481 30.1039 31.8203 29.8317C32.0924 29.5595 32.2453 29.1904 32.2453 28.8055V17.1949C32.2452 17.03 32.1796 16.8719 32.0629 16.7554ZM27.6841 32.1228C27.6841 32.1778 27.6622 32.2305 27.6233 32.2694C27.5844 32.3083 27.5317 32.3301 27.4767 32.3301H15.8661C15.8112 32.3301 15.7584 32.3083 15.7195 32.2694C15.6807 32.2305 15.6588 32.1778 15.6588 32.1228V17.1949C15.6588 17.1399 15.6807 17.0872 15.7195 17.0483C15.7584 17.0094 15.8112 16.9876 15.8661 16.9876H23.9013L27.6841 20.7703V32.1228ZM31.0014 28.8055C31.0014 28.8605 30.9795 28.9132 30.9406 28.9521C30.9018 28.991 30.849 29.0128 30.794 29.0128H28.928V20.5122C28.9279 20.3473 28.8623 20.1892 28.7456 20.0727L24.599 15.926C24.4824 15.8093 24.3243 15.7437 24.1594 15.7436H18.9761V13.8776C18.9761 13.8226 18.998 13.7699 19.0368 13.731C19.0757 13.6921 19.1285 13.6703 19.1835 13.6703H27.2186L31.0014 17.453V28.8055ZM24.7814 25.4882C24.7814 25.6531 24.7159 25.8113 24.5992 25.928C24.4826 26.0446 24.3244 26.1102 24.1594 26.1102H19.1835C19.0185 26.1102 18.8603 26.0446 18.7436 25.928C18.627 25.8113 18.5615 25.6531 18.5615 25.4882C18.5615 25.3232 18.627 25.165 18.7436 25.0484C18.8603 24.9317 19.0185 24.8662 19.1835 24.8662H24.1594C24.3244 24.8662 24.4826 24.9317 24.5992 25.0484C24.7159 25.165 24.7814 25.3232 24.7814 25.4882ZM24.7814 28.8055C24.7814 28.9704 24.7159 29.1286 24.5992 29.2453C24.4826 29.3619 24.3244 29.4275 24.1594 29.4275H19.1835C19.0185 29.4275 18.8603 29.3619 18.7436 29.2453C18.627 29.1286 18.5615 28.9704 18.5615 28.8055C18.5615 28.6405 18.627 28.4823 18.7436 28.3657C18.8603 28.249 19.0185 28.1835 19.1835 28.1835H24.1594C24.3244 28.1835 24.4826 28.249 24.5992 28.3657C24.7159 28.4823 24.7814 28.6405 24.7814 28.8055Z" fill="#365486"/>
</g>
</svg>
