<svg width="24" height="24" viewBox="0 0 24 24" fill="none" xmlns="http://www.w3.org/2000/svg">
<rect width="24" height="24" rx="12" fill="#2BAA20"/>
<path d="M17.5825 9.26937L10.6485 16.2034L17.5825 9.26937ZM17.5825 9.26937L17.5836 9.27048L17.7604 9.09368C17.9326 8.92155 18.0293 8.6881 18.0293 8.44468C18.0293 8.20126 17.9326 7.9678 17.7604 7.79568C17.5883 7.62355 17.3549 7.52686 17.1114 7.52686C16.868 7.52686 16.6346 7.62355 16.4624 7.79568L9.9998 14.2573L7.53711 11.7946C7.45189 11.7093 7.35071 11.6417 7.23935 11.5956C7.128 11.5495 7.00865 11.5257 6.88811 11.5257C6.76758 11.5257 6.64823 11.5495 6.53688 11.5956C6.42552 11.6417 6.32434 11.7093 6.23912 11.7946C6.15389 11.8798 6.08628 11.981 6.04016 12.0923L6.26985 12.1875L6.04016 12.0923C5.99403 12.2037 5.97029 12.323 5.97029 12.4436C5.97029 12.5641 5.99403 12.6834 6.04016 12.7948L6.26985 12.6997L6.04016 12.7948C6.08628 12.9062 6.15389 13.0073 6.23912 13.0926L6.41403 12.9177L6.23912 13.0926L9.34992 16.2034C9.34997 16.2034 9.35002 16.2035 9.35007 16.2035L9.35023 16.2037L17.5825 9.26937ZM10.3508 16.4029C10.462 16.3567 10.5631 16.289 10.6482 16.2037L9.74357 16.172L9.6477 16.4029C9.75912 16.4492 9.87858 16.473 9.99922 16.473C10.1199 16.473 10.2393 16.4492 10.3508 16.4029Z" fill="white" stroke="white" stroke-width="0.5"/>
</svg>
