<svg width="24" height="30" viewBox="0 0 24 30" fill="none" xmlns="http://www.w3.org/2000/svg">
<path d="M12 5.5C9.62663 5.5 7.30655 6.20379 5.33316 7.52236C3.35977 8.84094 1.8217 10.7151 0.913451 12.9078C0.00519943 15.1005 -0.232441 17.5133 0.230582 19.8411C0.693605 22.1689 1.83649 24.3071 3.51472 25.9853C5.19295 27.6635 7.33115 28.8064 9.65892 29.2694C11.9867 29.7324 14.3995 29.4948 16.5922 28.5866C18.7849 27.6783 20.6591 26.1402 21.9776 24.1668C23.2962 22.1935 24 19.8734 24 17.5C23.9964 14.3185 22.7309 11.2684 20.4813 9.01874C18.2316 6.76909 15.1815 5.50364 12 5.5ZM12 26.5C10.22 26.5 8.47992 25.9722 6.99987 24.9832C5.51983 23.9943 4.36628 22.5887 3.68509 20.9442C3.0039 19.2996 2.82567 17.49 3.17294 15.7442C3.52021 13.9984 4.37737 12.3947 5.63604 11.136C6.89472 9.87737 8.49836 9.0202 10.2442 8.67293C11.99 8.32567 13.7996 8.5039 15.4442 9.18508C17.0887 9.86627 18.4943 11.0198 19.4832 12.4999C20.4722 13.9799 21 15.72 21 17.5C20.9974 19.8861 20.0483 22.1738 18.361 23.861C16.6738 25.5483 14.3861 26.4974 12 26.5ZM16.5613 12.4388C16.7011 12.5781 16.812 12.7437 16.8878 12.926C16.9635 13.1083 17.0024 13.3038 17.0024 13.5013C17.0024 13.6987 16.9635 13.8942 16.8878 14.0765C16.812 14.2588 16.7011 14.4244 16.5613 14.5638L13.0613 18.0637C12.7795 18.3455 12.3973 18.5039 11.9988 18.5039C11.6002 18.5039 11.218 18.3455 10.9363 18.0637C10.6545 17.782 10.4962 17.3998 10.4962 17.0012C10.4962 16.6027 10.6545 16.2205 10.9363 15.9388L14.4363 12.4388C14.5756 12.2989 14.7412 12.188 14.9235 12.1122C15.1059 12.0365 15.3013 11.9976 15.4988 11.9976C15.6962 11.9976 15.8917 12.0365 16.074 12.1122C16.2563 12.188 16.4219 12.2989 16.5613 12.4388ZM7.50001 2C7.50001 1.60218 7.65804 1.22064 7.93935 0.93934C8.22065 0.658035 8.60218 0.5 9.00001 0.5H15C15.3978 0.5 15.7794 0.658035 16.0607 0.93934C16.342 1.22064 16.5 1.60218 16.5 2C16.5 2.39782 16.342 2.77936 16.0607 3.06066C15.7794 3.34196 15.3978 3.5 15 3.5H9.00001C8.60218 3.5 8.22065 3.34196 7.93935 3.06066C7.65804 2.77936 7.50001 2.39782 7.50001 2Z" fill="#0F1035"/>
</svg>
