<svg width="25" height="24" viewBox="0 0 25 24" fill="none" xmlns="http://www.w3.org/2000/svg">
<rect x="0.330078" width="24" height="24" rx="12" fill="#D11A2A"/>
<path d="M15.9322 7.03273L12.3302 10.6353L8.72931 7.03333L8.72928 7.03331C8.54826 6.85229 8.30275 6.75059 8.04675 6.75059C7.79075 6.75059 7.54524 6.85229 7.36422 7.03331C7.18321 7.21432 7.08151 7.45984 7.08151 7.71583C7.08151 7.97182 7.1832 8.21732 7.3642 8.39833C7.36421 8.39834 7.36421 8.39835 7.36422 8.39836L10.9651 12.0004L7.36306 15.6013L7.36303 15.6013C7.18202 15.7823 7.08032 16.0278 7.08032 16.2838C7.08032 16.5398 7.18202 16.7854 7.36303 16.9664C7.54405 17.1474 7.78956 17.2491 8.04556 17.2491C8.30156 17.2491 8.54707 17.1474 8.72809 16.9664L12.3301 13.3655L15.931 16.9675L15.931 16.9676C16.1121 17.1486 16.3576 17.2503 16.6136 17.2503C16.8696 17.2503 17.1151 17.1486 17.2961 16.9676C17.4771 16.7865 17.5788 16.541 17.5788 16.285C17.5788 16.029 17.4771 15.7835 17.2961 15.6025C17.2961 15.6025 17.2961 15.6025 17.2961 15.6025L13.6952 12.0004L17.2973 8.39777C17.4783 8.21675 17.58 7.97124 17.58 7.71524C17.58 7.45924 17.4783 7.21373 17.2973 7.03271C17.1163 6.85169 16.8708 6.75 16.6148 6.75C16.3588 6.75 16.1133 6.85169 15.9322 7.03271L15.9322 7.03273Z" fill="white" stroke="white" stroke-width="0.5"/>
</svg>
