<svg width="64" height="64" viewBox="0 0 64 64" fill="none" xmlns="http://www.w3.org/2000/svg">
<rect width="64" height="64" rx="32" fill="#D9EFF4"/>
<path d="M22.9 20.2333V17.3333C22.9 16.688 23.1564 16.069 23.6127 15.6127C24.069 15.1564 24.688 14.9 25.3333 14.9H38.6667H38.6668C38.9584 14.9003 39.238 15.0163 39.444 15.2226C39.4441 15.2226 39.4441 15.2227 39.4441 15.2227L46.1107 21.8892L46.1107 21.8893L46.04 21.96C46.2276 22.1474 46.3331 22.4015 46.3333 22.6667L22.9 20.2333ZM22.9 20.2333H20C19.3546 20.2333 18.7357 20.4897 18.2794 20.946C17.823 21.4024 17.5667 22.0213 17.5667 22.6667V46.6667C17.5667 47.312 17.823 47.931 18.2794 48.3873C18.7357 48.8436 19.3546 49.1 20 49.1H38.6667C39.312 49.1 39.931 48.8436 40.3873 48.3873C40.8436 47.931 41.1 47.312 41.1 46.6667V43.7667L22.9 20.2333ZM41.1 41.5667H44C44.0619 41.5667 44.1212 41.5421 44.165 41.4983C44.2088 41.4546 44.2333 41.3952 44.2333 41.3333V23.1231L38.2102 17.1H25.3333C25.2715 17.1 25.2121 17.1246 25.1683 17.1683C25.1246 17.2121 25.1 17.2714 25.1 17.3333V20.2333H33.3333H33.3334C33.6251 20.2336 33.9047 20.3497 34.1108 20.556M41.1 41.5667L34.04 20.6267M41.1 41.5667V28V27.9999C41.0997 27.7083 40.9837 27.4287 40.7773 27.2226M41.1 41.5667L40.7067 27.2933M34.1108 20.556L34.04 20.6267M34.1108 20.556L34.1107 20.556L34.04 20.6267M34.1108 20.556L40.7773 27.2226M34.04 20.6267L40.7067 27.2933M40.7773 27.2226L40.7067 27.2933M40.7773 27.2226L40.7774 27.2226L40.7067 27.2933M25.1 20.3333H25V20.2333L25.1 20.3333ZM38.9 46.6667C38.9 46.7286 38.8754 46.7879 38.8317 46.8317C38.7879 46.8754 38.7286 46.9 38.6667 46.9H20C19.9381 46.9 19.8788 46.8754 19.835 46.8317C19.7913 46.7879 19.7667 46.7286 19.7667 46.6667V22.6667C19.7667 22.6048 19.7913 22.5454 19.835 22.5017C19.8788 22.4579 19.9381 22.4333 20 22.4333H32.8769L38.9 28.4564V46.6667ZM34.1112 36.7778C34.3174 36.5715 34.4333 36.2917 34.4333 36C34.4333 35.7083 34.3174 35.4285 34.1112 35.2222C33.9049 35.0159 33.6251 34.9 33.3333 34.9H25.3333C25.0416 34.9 24.7618 35.0159 24.5555 35.2222C24.3492 35.4285 24.2333 35.7083 24.2333 36C24.2333 36.2917 24.3492 36.5715 24.5555 36.7778C24.7618 36.9841 25.0416 37.1 25.3333 37.1H33.3333C33.6251 37.1 33.9049 36.9841 34.1112 36.7778ZM34.1112 42.1112C34.3174 41.9049 34.4333 41.6251 34.4333 41.3333C34.4333 41.0416 34.3174 40.7618 34.1112 40.5555C33.9049 40.3492 33.6251 40.2333 33.3333 40.2333H25.3333C25.0416 40.2333 24.7618 40.3492 24.5555 40.5555C24.3492 40.7618 24.2333 41.0416 24.2333 41.3333C24.2333 41.6251 24.3492 41.9049 24.5555 42.1112C24.7618 42.3174 25.0416 42.4333 25.3333 42.4333H33.3333C33.6251 42.4333 33.9049 42.3174 34.1112 42.1112Z" fill="#365486" stroke="#365486" stroke-width="0.2"/>
</svg>
