<svg width="64" height="64" viewBox="0 0 64 64" fill="none" xmlns="http://www.w3.org/2000/svg">
<rect width="64" height="64" rx="32" fill="#D9EFF4"/>
<path d="M17.0622 45.5856L17.0623 45.5856L22.5725 37.3503L17.0622 45.5856ZM17.0622 45.5856C16.9631 45.7342 16.9071 45.906 16.9006 46.083C16.8942 46.26 16.9374 46.4353 17.0256 46.5903C17.1137 46.7452 17.2433 46.874 17.4004 46.9635L17.4499 46.8766M17.0622 45.5856L17.4499 46.8766M17.4499 46.8766L17.4004 46.9635C17.5574 47.0529 17.7363 47.1 17.9184 47.1H37.5101M17.4499 46.8766C17.5917 46.9574 17.7535 47 17.9184 47H37.5102M30.6434 34.6611C30.7912 34.7373 30.9175 34.8477 31.0107 34.9827L30.6434 34.6611ZM30.6434 34.6611C30.4955 34.5849 30.3306 34.5451 30.1633 34.5451M30.6434 34.6611L30.1633 34.5451M37.5101 47.1C37.6938 47.1003 37.8743 47.0526 38.0325 46.9618C38.1907 46.8709 38.3207 46.7402 38.4084 46.5831C38.496 46.426 38.5377 46.2487 38.5287 46.0701C38.5198 45.8916 38.4605 45.719 38.3576 45.5709L31.0109 34.9829L37.5102 47M37.5101 47.1L37.5102 47M37.5101 47.1H37.5102V47M25.9494 39.8371L29.3157 34.9829L25.9494 39.8371ZM25.9494 39.8371L24.2847 37.3503L25.9494 39.8371ZM30.1633 34.5451C29.9959 34.5451 29.831 34.5849 29.6832 34.6611M30.1633 34.5451L29.6832 34.6611M29.6832 34.6611C29.5354 34.7373 29.4091 34.8477 29.3158 34.9827L29.6832 34.6611ZM23.9155 37.0196C24.065 37.0981 24.1921 37.2117 24.2846 37.3503L23.9155 37.0196ZM23.9155 37.0196C23.766 36.941 23.5985 36.9 23.4286 36.9M23.9155 37.0196L23.4286 36.9M23.4286 36.9C23.2586 36.9 23.0912 36.941 22.9416 37.0196M23.4286 36.9L22.9416 37.0196M22.9416 37.0196C22.7921 37.0981 22.6651 37.2117 22.5725 37.3503L22.9416 37.0196ZM26.774 42.1717L30.1572 37.2902L35.6032 45.1353H19.7892L23.4286 39.6945L25.0781 42.1586L25.0785 42.1591C25.1706 42.2949 25.2961 42.4064 25.4433 42.4837C25.5905 42.5611 25.7551 42.6022 25.9225 42.6035C26.0898 42.6047 26.2551 42.5662 26.4035 42.4911C26.552 42.416 26.6793 42.3066 26.7737 42.1722L26.774 42.1717ZM22.8163 18.8647H36.4918V26.1176C36.4918 26.3795 36.6001 26.6298 36.7915 26.8137C36.9828 26.9974 37.2414 27.1 37.5102 27.1H45.0633V44.9412C45.0633 44.9913 45.0426 45.0403 45.0043 45.077C44.9659 45.1139 44.9131 45.1353 44.8571 45.1353H43.6327C43.3638 45.1353 43.1052 45.2379 42.914 45.4216C42.7226 45.6055 42.6143 45.8558 42.6143 46.1176C42.6143 46.3795 42.7226 46.6298 42.914 46.8137C43.1052 46.9974 43.3638 47.1 43.6327 47.1H44.8571C45.4507 47.1 46.0208 46.8735 46.4417 46.4691C46.8627 46.0646 47.1 45.5151 47.1 44.9412V26.1176V26.1176C47.0998 25.8558 46.9913 25.6057 46.7999 25.422L38.2285 17.1868C38.0374 17.0029 37.779 16.9002 37.5103 16.9H37.5102H22.8163C22.2227 16.9 21.6527 17.1265 21.2318 17.5309C20.8108 17.9354 20.5735 18.4849 20.5735 19.0588V33.1765C20.5735 33.4383 20.6818 33.6886 20.8732 33.8725C21.0644 34.0563 21.323 34.1588 21.5918 34.1588C21.8607 34.1588 22.1192 34.0563 22.3105 33.8725C22.5019 33.6886 22.6102 33.4383 22.6102 33.1765V19.0588C22.6102 19.0087 22.6309 18.9597 22.6691 18.923C22.7075 18.8861 22.7604 18.8647 22.8163 18.8647ZM38.5286 25.1353V20.2465L43.6169 25.1353H38.5286Z" fill="#365486" stroke="#365486" stroke-width="0.2"/>
</svg>
