<svg width="40" height="40" viewBox="0 0 40 40" fill="none" xmlns="http://www.w3.org/2000/svg">
<rect x="1" y="1" width="38" height="38" rx="6" fill="#D11A2A" fill-opacity="0.05"/>
<rect x="0.5" y="0.5" width="39" height="39" rx="6.5" stroke="#D11A2A" stroke-opacity="0.4"/>
<path d="M18.333 29.1667C18.333 29.3877 18.2452 29.5996 18.0889 29.7559C17.9326 29.9122 17.7206 30 17.4996 30H11.6663C11.2243 30 10.8003 29.8244 10.4878 29.5118C10.1752 29.1993 9.99963 28.7754 9.99963 28.3333V11.6667C9.99963 11.2246 10.1752 10.8007 10.4878 10.4882C10.8003 10.1756 11.2243 10 11.6663 10H17.4996C17.7206 10 17.9326 10.0878 18.0889 10.2441C18.2452 10.4004 18.333 10.6123 18.333 10.8333C18.333 11.0543 18.2452 11.2663 18.0889 11.4226C17.9326 11.5789 17.7206 11.6667 17.4996 11.6667H11.6663V28.3333H17.4996C17.7206 28.3333 17.9326 28.4211 18.0889 28.5774C18.2452 28.7337 18.333 28.9457 18.333 29.1667ZM29.7559 19.4104L25.5892 15.2437C25.4328 15.0874 25.2208 14.9995 24.9996 14.9995C24.7785 14.9995 24.5664 15.0874 24.41 15.2437C24.2537 15.4001 24.1658 15.6122 24.1658 15.8333C24.1658 16.0545 24.2537 16.2665 24.41 16.4229L27.1548 19.1667H17.4996C17.2786 19.1667 17.0667 19.2545 16.9104 19.4107C16.7541 19.567 16.6663 19.779 16.6663 20C16.6663 20.221 16.7541 20.433 16.9104 20.5893C17.0667 20.7455 17.2786 20.8333 17.4996 20.8333H27.1548L24.41 23.5771C24.2537 23.7334 24.1658 23.9455 24.1658 24.1667C24.1658 24.3878 24.2537 24.5999 24.41 24.7563C24.5664 24.9126 24.7785 25.0005 24.9996 25.0005C25.2208 25.0005 25.4328 24.9126 25.5892 24.7563L29.7559 20.5896C29.8334 20.5122 29.8948 20.4203 29.9368 20.3191C29.9787 20.218 30.0003 20.1095 30.0003 20C30.0003 19.8905 29.9787 19.782 29.9368 19.6809C29.8948 19.5797 29.8334 19.4878 29.7559 19.4104Z" fill="#D11A2A"/>
</svg>
