<svg width="38" height="38" viewBox="0 0 38 38" fill="none" xmlns="http://www.w3.org/2000/svg">
<rect x="0.710266" y="0.710083" width="36.58" height="36.58" rx="4" fill="#F7F9FB"/>
<rect x="1.21027" y="1.21008" width="35.58" height="35.58" rx="3.5" stroke="black" stroke-opacity="0.03"/>
<path d="M32.3222 29.7309C30.6083 26.7231 27.9323 24.3794 24.7247 23.0772C26.3198 21.8808 27.498 20.213 28.0925 18.3098C28.687 16.4066 28.6677 14.3646 28.0371 12.473C27.4066 10.5814 26.1969 8.93622 24.5794 7.77037C22.9619 6.60453 21.0185 5.97717 19.0247 5.97717C17.0308 5.97717 15.0874 6.60453 13.4699 7.77037C11.8524 8.93622 10.6427 10.5814 10.0122 12.473C9.38164 14.3646 9.36226 16.4066 9.95677 18.3098C10.5513 20.213 11.7295 21.8808 13.3247 23.0772C10.1171 24.3794 7.44096 26.7231 5.72715 29.7309C5.62096 29.9017 5.55018 30.092 5.51903 30.2907C5.48787 30.4893 5.49698 30.6922 5.5458 30.8873C5.59463 31.0824 5.68217 31.2656 5.80324 31.4262C5.9243 31.5867 6.07641 31.7213 6.25052 31.8219C6.42463 31.9225 6.61719 31.9871 6.81675 32.0117C7.01631 32.0364 7.2188 32.0207 7.41218 31.9656C7.60555 31.9105 7.78587 31.817 7.94241 31.6908C8.09895 31.5646 8.22851 31.4082 8.3234 31.2309C10.5884 27.3159 14.5884 24.9809 19.0247 24.9809C23.4609 24.9809 27.4609 27.3172 29.7259 31.2309C29.9315 31.5616 30.2577 31.7993 30.6355 31.8939C31.0132 31.9884 31.4129 31.9324 31.7501 31.7376C32.0872 31.5428 32.3354 31.2245 32.4422 30.85C32.5489 30.4755 32.5059 30.0742 32.3222 29.7309ZM12.5247 15.4809C12.5247 14.1953 12.9059 12.9386 13.6201 11.8697C14.3343 10.8008 15.3495 9.96768 16.5372 9.47571C17.7249 8.98374 19.0319 8.85501 20.2927 9.10582C21.5536 9.35662 22.7118 9.97569 23.6208 10.8847C24.5299 11.7938 25.149 12.952 25.3998 14.2128C25.6506 15.4737 25.5218 16.7806 25.0299 17.9684C24.5379 19.1561 23.7048 20.1712 22.6359 20.8855C21.5669 21.5997 20.3102 21.9809 19.0247 21.9809C17.3014 21.9789 15.6492 21.2935 14.4307 20.0749C13.2121 18.8564 12.5266 17.2042 12.5247 15.4809Z" fill="black" fill-opacity="0.2"/>
</svg>
