<svg width="64" height="64" viewBox="0 0 64 64" fill="none" xmlns="http://www.w3.org/2000/svg">
<rect width="64" height="64" rx="32" fill="#D9EFF4"/>
<path d="M41.3928 38.8931H22.2369C20.8345 38.8931 19.6976 40.03 19.6976 41.4324V42.4164C19.6976 43.8188 20.8345 44.9557 22.2369 44.9557H41.3928C42.7953 44.9557 43.9322 43.8188 43.9322 42.4164V41.4324C43.9322 40.03 42.7953 38.8931 41.3928 38.8931Z" stroke="#365486" stroke-width="2.42564" stroke-miterlimit="10"/>
<path d="M44.5953 37.318C44.2823 37.9883 43.6095 38.4167 42.8697 38.4167H21.1303C20.3905 38.4167 19.7177 37.9883 19.4047 37.318L15.9143 29.8431C15.598 29.1656 15.7059 28.3619 16.2065 27.8065C21.471 21.9648 26.7355 19.0439 32 19.0439C37.2645 19.0439 42.529 21.9648 47.7935 27.8065C48.2941 28.3619 48.402 29.1656 48.0857 29.8431L44.5953 37.318Z" stroke="#365486" stroke-width="2.42564" stroke-miterlimit="10"/>
<path d="M27.284 29.7993H36.3621" stroke="#365486" stroke-width="3.0313" stroke-miterlimit="10"/>
<path d="M31.8227 25.2607V34.3388" stroke="#365486" stroke-width="3.0313" stroke-miterlimit="10"/>
</svg>
